<svg width="1714" height="347" viewBox="0 0 1714 347" fill="none" xmlns="http://www.w3.org/2000/svg">
<path d="M583.197 137.277C586.328 133.822 589.912 132.056 598.021 129.97C599.12 129.687 608.34 129.629 618.509 129.84C647.857 130.448 667.316 134.238 685.365 142.859C696.849 148.345 704.612 155.799 711.826 168.265C716.303 176.002 722.341 185.322 728.344 193.767C729.788 195.799 730.929 199.085 731.214 202.036C731.82 208.333 729.642 211.976 720.636 219.73C716.961 222.893 710.388 228.738 706.03 232.718C697.095 240.879 688.064 245.911 682.349 245.911C677.011 245.911 670.177 242.996 654.544 234.05C647.093 229.786 637.323 224.404 632.834 222.09C620.811 215.892 618.389 213.066 609.892 195.318C601.269 177.305 595.443 168.724 588.075 163.178C583.719 159.901 582.342 158.095 580.543 153.3C577.834 146.079 578.418 142.549 583.197 137.277Z" stroke="#E88226" stroke-width="10"/>
<path d="M1245.2 233.277C1248.33 229.822 1251.91 228.056 1260.02 225.97C1261.12 225.687 1270.34 225.629 1280.51 225.84C1309.86 226.448 1329.32 230.238 1347.37 238.859C1358.85 244.345 1366.61 251.799 1373.83 264.265C1378.3 272.002 1384.34 281.322 1390.34 289.767C1391.79 291.799 1392.93 295.085 1393.21 298.036C1393.82 304.333 1391.64 307.976 1382.64 315.73C1378.96 318.893 1372.39 324.738 1368.03 328.718C1359.1 336.879 1350.06 341.911 1344.35 341.911C1339.01 341.911 1332.18 338.996 1316.54 330.05C1309.09 325.786 1299.32 320.404 1294.83 318.09C1282.81 311.892 1280.39 309.066 1271.89 291.318C1263.27 273.305 1257.44 264.724 1250.07 259.178C1245.72 255.901 1244.34 254.095 1242.54 249.3C1239.83 242.079 1240.42 238.549 1245.2 233.277Z" stroke="#E88226" stroke-width="10"/>
<path d="M1647.45 6.94132C1651.87 8.42508 1654.92 11.0004 1660.09 17.5935C1660.79 18.4873 1664.54 26.9102 1668.42 36.3111C1679.63 63.4419 1683.95 82.7878 1683.29 102.78C1682.87 115.499 1679.15 125.6 1670.62 137.206C1665.33 144.409 1659.21 153.676 1653.88 162.561C1652.6 164.699 1650.04 167.061 1647.46 168.505C1641.93 171.585 1637.72 171.05 1627.01 165.907C1622.63 163.808 1614.64 160.129 1609.25 157.733C1598.19 152.818 1589.96 146.561 1587.67 141.325C1585.53 136.435 1585.46 129.006 1587.39 111.098C1588.31 102.562 1589.33 91.4542 1589.65 86.4137C1590.5 72.9148 1592.12 69.5634 1604.98 54.6643C1618.02 39.544 1623.55 30.7659 1625.68 21.793C1626.93 16.489 1628.04 14.5034 1631.71 10.9334C1637.24 5.55655 1640.7 4.67699 1647.45 6.94132Z" stroke="#E88226" stroke-width="10"/>
<path d="M974.482 213.253C914.09 210.583 903.224 209.802 898.382 207.781L889.519 199.274C891.899 195.944 892.096 189.459 890.474 167.879C889.331 152.691 887.556 142.423 884.406 132.771C882.702 127.548 882.561 125.991 883.533 123.058C884.263 120.853 885.491 119.368 886.861 119.032C888.054 118.739 921.862 118.627 961.989 118.784C1046.4 119.112 1036.48 117.704 1051.05 131.432C1057.84 137.827 1063.7 142.091 1074.04 148.161C1097.62 162.002 1102.63 165.481 1111 173.789C1117.06 179.815 1120.02 183.722 1122.82 189.407C1129.54 203.043 1127.22 210.972 1115.89 213.112C1109.28 214.362 1001.96 214.467 974.482 213.253Z" stroke="#E88226" stroke-width="10"/>
<path d="M322.973 87.9273C322.623 83.4286 324.458 78.5375 326.962 77.2933C329.817 75.8738 332.958 77.1579 333.718 80.0567C334.025 81.2261 335.095 81.9504 336.518 81.9504C341.871 81.9504 370.66 79.8425 385.515 78.3632C394.344 77.4836 405.964 76.9228 411.337 77.116C420.505 77.4457 421.25 77.633 423.426 80.1563C426.468 83.6837 428.482 92.8383 430.393 111.825C431.245 120.299 432.657 131.276 433.528 136.219C436.801 154.769 435.239 164.835 428.6 167.963C425.507 169.421 397.881 172.245 348.661 176.135C328.984 177.69 327.759 177.686 325.946 176.05C324.129 174.411 324.008 172.152 323.598 132.37C323.36 109.296 323.079 89.297 322.973 87.9273Z" stroke="#E88226" stroke-width="10"/>
<path d="M1578.97 221.927C1578.62 217.429 1580.46 212.538 1582.96 211.293C1585.82 209.874 1588.96 211.158 1589.72 214.057C1590.02 215.226 1591.1 215.95 1592.52 215.95C1597.87 215.95 1626.66 213.842 1641.51 212.363C1650.34 211.484 1661.96 210.923 1667.34 211.116C1676.5 211.446 1677.25 211.633 1679.43 214.156C1682.47 217.684 1684.48 226.838 1686.39 245.825C1687.25 254.299 1688.66 265.276 1689.53 270.219C1692.8 288.769 1691.24 298.835 1684.6 301.963C1681.51 303.421 1653.88 306.245 1604.66 310.135C1584.98 311.69 1583.76 311.686 1581.95 310.05C1580.13 308.411 1580.01 306.152 1579.6 266.37C1579.36 243.296 1579.08 223.297 1578.97 221.927Z" stroke="#E88226" stroke-width="10"/>
<path d="M237.028 159.037C232.488 161.695 229.356 161.331 228.056 157.994C227.596 156.813 227.518 154.989 227.882 153.942C228.692 151.615 244.697 142.145 270.361 128.81C297.942 114.479 311.694 108.403 313.749 109.637C315.411 110.636 334.744 134.154 351.492 155.549C361.66 168.539 363.157 172.318 360.319 177.818C358.057 182.2 346.357 192.237 273.353 252.422C257.12 265.804 253.465 267.795 250.876 264.666C249.77 263.329 234.73 216.828 232.81 208.812C230.531 199.297 233.688 194.072 245.028 188.591C256.322 183.133 256.727 179.86 247.745 166.616C244.833 162.323 242.132 158.334 241.743 157.751C241.275 157.047 239.688 157.481 237.028 159.037Z" stroke="#E88226" stroke-width="10"/>
<path d="M888.386 202.526C891.501 198.286 894.52 197.379 897.036 199.927C897.927 200.828 898.722 202.472 898.802 203.578C898.982 206.035 888.041 221.074 869.765 243.489C850.123 267.579 839.907 278.608 837.531 278.29C835.609 278.032 808.538 264.103 784.681 251.1C770.197 243.203 767.324 240.328 767.75 234.153C768.09 229.233 774.853 215.381 818.021 131.188C827.62 112.468 830.186 109.191 833.804 111.038C835.348 111.827 867.589 148.558 872.528 155.155C878.392 162.989 877.565 169.036 869.327 178.563C861.121 188.051 862.047 191.216 875.543 199.815C879.918 202.602 883.979 205.194 884.567 205.575C885.276 206.036 886.561 205.009 888.386 202.526Z" stroke="#E88226" stroke-width="10"/>
<path d="M1493.36 148.255C1490.79 143.668 1491.21 140.544 1494.57 139.304C1495.76 138.866 1497.58 138.821 1498.62 139.204C1500.93 140.056 1510.11 156.232 1522.97 182.134C1536.8 209.972 1542.62 223.832 1541.35 225.864C1540.32 227.508 1516.46 246.409 1494.76 262.764C1481.59 272.694 1477.78 274.122 1472.33 271.184C1467.99 268.842 1458.17 256.961 1399.33 182.872C1386.24 166.398 1384.32 162.707 1387.5 160.176C1388.85 159.095 1435.62 144.904 1443.67 143.131C1453.23 141.026 1458.39 144.278 1463.66 155.715C1468.92 167.108 1472.18 167.572 1485.59 158.832C1489.93 155.999 1493.97 153.372 1494.56 152.994C1495.27 152.538 1494.87 150.943 1493.36 148.255Z" stroke="#E88226" stroke-width="10"/>
<path d="M97.5813 243.541C64.68 235.621 49.9469 226.783 41.0991 209.656C36.8471 201.425 32.9144 186.878 31.514 174.197C30.2991 163.19 30.3372 148.214 31.6365 126.142C32.9826 103.295 33.0465 93.5821 31.8934 87.2087C30.5907 80.0052 31.8355 75.7086 36.6142 70.9106C42.9795 64.5211 52.4018 63.4793 61.0066 68.2162C73.5925 75.1422 79.6263 88.6032 81.5237 113.987C83.9995 147.11 89.2867 164.236 101.227 177.813C110.898 188.811 119.047 192.773 140.53 196.926C157.363 200.18 163.433 203.38 173.788 214.459C191.767 233.695 191.519 246.067 173.086 249.42C159.473 251.896 119.296 248.768 97.5813 243.541Z" stroke="#E88226" stroke-width="10"/>
<path d="M1185.21 116.149C1201.77 86.6372 1214.28 74.86 1233.17 70.9988C1242.24 69.1431 1257.31 69.311 1269.9 71.409C1280.82 73.2306 1295.22 77.3366 1316.11 84.5844C1337.73 92.0876 1347.06 94.7883 1353.51 95.4104C1360.8 96.114 1364.59 98.4794 1367.91 104.382C1372.33 112.244 1370.77 121.595 1363.88 128.589C1353.79 138.819 1339.2 140.969 1314.25 135.897C1281.7 129.28 1263.78 129.715 1247.47 137.517C1234.26 143.836 1228.23 150.601 1218.4 170.148C1210.7 185.463 1205.97 190.436 1192.49 197.391C1169.09 209.466 1157.25 205.866 1159.04 187.215C1160.35 173.441 1174.28 135.627 1185.21 116.149Z" stroke="#E88226" stroke-width="10"/>
<path d="M474.706 132.721C486.642 128.27 497.486 121.703 506.762 113.31C512 108.571 515.907 107.497 518.501 110.083C519.265 110.844 524.533 123.732 530.208 138.723C535.883 153.714 543.668 174.047 547.506 183.909C556.159 206.137 557.215 211.924 554.912 224.519C553.987 229.578 552.326 239.764 551.219 247.155C546.961 275.614 541.365 291.987 534.271 296.741C528.749 300.441 522.609 297.973 519.247 290.701C517.127 286.114 504.514 253.756 496.259 231.724C490.007 215.039 469.973 155.44 467.847 147.201C465.659 138.724 467.172 135.53 474.706 132.721Z" stroke="#E88226" stroke-width="10"/>
</svg>
